<svg xmlns="http://www.w3.org/2000/svg" version="1.1" xmlns:xlink="http://www.w3.org/1999/xlink" xmlns:svgjs="http://svgjs.dev/svgjs" width="1000" height="1000" viewBox="0 0 1000 1000"><rect width="1000" height="1000" fill="#000000"></rect><g transform="matrix(0.7,0,0,0.7,149.57575757575756,282.1265587044535)"><svg viewBox="0 0 396 247" data-background-color="#3b3486" preserveAspectRatio="xMidYMid meet" height="623" width="1000" xmlns="http://www.w3.org/2000/svg" xmlns:xlink="http://www.w3.org/1999/xlink"><g id="tight-bounds" transform="matrix(1,0,0,1,0.2400000000000091,-0.09999999999999432)"><svg viewBox="0 0 395.52 247.2" height="247.2" width="395.52"><g><svg></svg></g><g><svg viewBox="0 0 395.52 247.2" height="247.2" width="395.52"><mask id="a1a81d9e-2ebe-453c-bd5f-cbb062e79914"><rect width="640" height="400" fill="white"></rect><g transform="matrix(1,0,0,1,39.55199999999999,45.630661398477)"><svg viewBox="0 0 316.416 155.93867720304598" height="155.93867720304598" width="316.416"><g><svg viewBox="0 0 316.416 155.93867720304598" height="155.93867720304598" width="316.416"><g><svg viewBox="0 0 316.416 155.93867720304598" height="155.93867720304598" width="316.416"><g id="SvgjsG1116"><svg viewBox="0 0 316.416 155.93867720304598" height="155.93867720304598" width="316.416" id="SvgjsSvg1115"><g><svg viewBox="0 0 316.416 109.1583157894737" height="109.1583157894737" width="316.416"><g transform="matrix(1,0,0,1,0,0)"><svg width="316.416" viewBox="-4.550000011920929 -38.95000076293945 122.60000610351562 42.95000076293945" height="109.1583157894737" data-palette-color="#fcfdf2"><path d="M-0.55-2.15L4.3-2.15 4.3-34.95 29.5-34.95 29.5-28 12.1-28 12.1-20.8 27.75-20.8 27.75-14.15 12.1-14.15 12.1-6.9 30.05-6.9 30.05-2.15 34.9-2.15 34.9 0-0.55 0-0.55-2.15ZM72.35-2.15L83.65-2.15 83.65 0 65.8 0 58.15-24.3 50.55 0 32.7 0 32.7-2.15 44-2.15 32.55-34.95 41-34.95 47.9-14.85 54.1-34.95 62.25-34.95 68.4-14.85 75.35-34.95 83.8-34.95 72.35-2.15ZM102.75-2.15L114.05-2.15 114.05 0 83.65 0 83.65-2.15 94.95-2.15 94.95-28.2 85.05-28.2 85.05-34.95 112.65-34.95 112.65-28.2 102.75-28.2 102.75-2.15Z" opacity="1" transform="matrix(1,0,0,1,0,0)" fill="black" class="wordmark-text-0" id="SvgjsPath1114" stroke-width="7" stroke="black" stroke-linejoin="round"></path></svg></g></svg></g><g transform="matrix(1,0,0,1,3.5,130.62791213305266)"><svg viewBox="0 0 309.416 25.31076506999333" height="25.31076506999333" width="309.416"><g transform="matrix(1,0,0,1,0,0)"><svg width="309.416" viewBox="-1.5 -39.45000076293945 526.010009765625 43.95000076293945" height="25.31076506999333" data-palette-color="#fcfdf2"><path d="M12.3-21.1L18.75-21.1Q19.7-21.1 19.7-17.6L19.7-17.6Q19.7-16.55 19.48-15.13 19.25-13.7 18.65-13.7L18.65-13.7 12.3-13.7 12.3-8.7 21.5-8.7Q22.35-8.7 22.65-6.5L22.65-6.5Q22.8-5.55 22.8-4.48 22.8-3.4 22.5-1.7 22.2 0 21.5 0L21.5 0 4.4 0Q2.5 0 2.5-1.55L2.5-1.55 2.5-33.7Q2.5-35 3.65-35L3.65-35 21.55-35Q22.6-35 22.6-30.58 22.6-26.15 21.55-26.15L21.55-26.15 12.3-26.15 12.3-21.1ZM45.65-10.45L45.65-10.45 45.75-17.25Q45.75-17.95 47.2-18.18 48.65-18.4 49.6-18.4L49.6-18.4 51.55-18.25Q53.45-17.95 53.45-17.2L53.45-17.2 53.25-1.55Q52.25-0.85 49.22-0.18 46.2 0.5 42.3 0.5L42.3 0.5Q35.05 0.5 30.6-4.2 26.15-8.9 26.15-18L26.15-18Q26.15-25.75 30.5-30.6 34.85-35.45 42.55-35.45L42.55-35.45Q46.05-35.45 48.87-34.77 51.7-34.1 52.75-32.95L52.75-32.95Q52.8-32.55 52.8-31.45 52.8-30.35 52.05-28.33 51.3-26.3 50.35-25.3 49.4-24.3 48.97-24.3 48.55-24.3 48.07-24.68 47.6-25.05 46.2-25.48 44.8-25.9 43.5-25.9L43.5-25.9Q40.4-25.9 38.47-23.9 36.55-21.9 36.55-17.7 36.55-13.5 38.52-11.33 40.5-9.15 43.07-9.15 45.65-9.15 45.65-10.45ZM71.4-23.15L75.6-33.35Q76.25-35.1 82-35.1L82-35.1Q83.45-35.1 85.42-34.9 87.4-34.7 87.25-34.4L87.25-34.4 76.85-13.5 76.85-1.3Q76.85-0.45 74.1-0.1L74.1-0.1Q72.7 0.1 71.35 0.1 70 0.1 68.65-0.05L68.65-0.05Q65.9-0.4 65.9-1.3L65.9-1.3 65.9-13.2 55.15-34.3Q54.95-34.6 57.2-34.88 59.45-35.15 61-35.15L61-35.15Q67.15-35.15 67.75-33.35L67.75-33.35 71.4-23.15ZM93.29 0.1L93.29 0.1Q88.74 0.1 88.74-0.9L88.74-0.9 88.74-33.3Q88.74-35 90.29-35L90.29-35 99.09-35Q106.49-35 109.77-31.95 113.04-28.9 113.04-23.1L113.04-23.1Q113.04-18.3 109.94-14.3L109.94-14.3Q108.39-12.3 105.39-11.1 102.39-9.9 98.39-9.9L98.39-9.9 98.39-0.95Q98.39-0.35 96.52-0.13 94.64 0.1 93.29 0.1ZM99.44-26.3L98.39-26.3 98.39-18.4 99.04-18.4Q100.79-18.4 101.99-19.5 103.19-20.6 103.19-22.6 103.19-24.6 102.37-25.45 101.54-26.3 99.44-26.3L99.44-26.3ZM132.49-25.9L132.49-0.8Q132.49 0.2 127.54 0.2 122.59 0.2 122.59-0.8L122.59-0.8 122.59-25.9 116.59-25.9Q115.74-25.9 115.39-28.2L115.39-28.2Q115.24-29.3 115.24-30.45 115.24-31.6 115.39-32.7L115.39-32.7Q115.74-35 116.59-35L116.59-35 138.34-35Q139.19-35 139.54-32.7L139.54-32.7Q139.69-31.6 139.69-30.45 139.69-29.3 139.54-28.2L139.54-28.2Q139.19-25.9 138.34-25.9L138.34-25.9 132.49-25.9ZM146.24-1.25L141.09-34.5Q140.94-35.05 146.14-35.05L146.14-35.05Q151.89-35.05 152.04-34.1L152.04-34.1 154.49-13.05 159.79-34.35Q160.04-35.1 163.69-35.1 167.34-35.1 167.59-34.4L167.59-34.4 172.79-12.95 175.69-34.2Q175.79-34.75 177.99-34.95 180.19-35.15 181.54-35.15L181.54-35.15Q186.79-35.15 186.64-34.45L186.64-34.45 180.59-1.3Q180.39-0.55 177.74-0.2 175.09 0.15 173.44 0.15L173.44 0.15Q167.24 0.15 166.94-1.25L166.94-1.25 163.54-15 159.84-1.3Q159.64-0.4 156.34 0L156.34 0Q154.64 0.15 152.94 0.15L152.94 0.15 149.74 0Q146.44-0.35 146.24-1.25L146.24-1.25ZM204.06 0.5Q197.04 0.5 192.61-4.1 188.19-8.7 188.19-17.53 188.19-26.35 192.66-30.9 197.14-35.45 204.21-35.45 211.29-35.45 215.64-30.98 219.99-26.5 219.99-17.43 219.99-8.35 215.54-3.93 211.09 0.5 204.06 0.5ZM204.09-25.85Q201.69-25.85 200.06-23.65 198.44-21.45 198.44-17.48 198.44-13.5 199.99-11.38 201.54-9.25 204.06-9.25 206.59-9.25 208.16-11.4 209.74-13.55 209.74-17.55 209.74-21.55 208.11-23.7 206.49-25.85 204.09-25.85ZM251.38-34.05L251.38-1.1Q251.38-0.05 246.68-0.05 241.98-0.05 241.58-0.8L241.58-0.8 233.23-16.4 233.23-0.85Q233.23 0.05 228.61 0.05 223.98 0.05 223.98-0.85L223.98-0.85 223.98-34.3Q223.98-35.05 227.93-35.05L227.93-35.05Q229.48-35.05 231.56-34.77 233.63-34.5 234.08-33.75L234.08-33.75 242.08-18.35 242.08-34.05Q242.08-35 246.73-35 251.38-35 251.38-34.05L251.38-34.05ZM256.38-2.3L256.38-2.3 256.38-32.3Q256.38-33.55 257.01-34.27 257.63-35 258.63-35L258.63-35 266.98-35Q274.93-35 279.06-31 283.18-27 283.18-18.4L283.18-18.4Q283.18 0 267.48 0L267.48 0 258.93 0Q256.38 0 256.38-2.3ZM266.48-25.5L265.98-25.5 265.98-10.55Q265.98-9.5 266.13-9.22 266.28-8.95 267.03-8.95L267.03-8.95Q269.78-8.95 271.21-11 272.63-13.05 272.63-17.82 272.63-22.6 271.16-24.05 269.68-25.5 266.48-25.5L266.48-25.5ZM296.98-21.1L303.43-21.1Q304.38-21.1 304.38-17.6L304.38-17.6Q304.38-16.55 304.15-15.13 303.93-13.7 303.33-13.7L303.33-13.7 296.98-13.7 296.98-8.7 306.18-8.7Q307.03-8.7 307.33-6.5L307.33-6.5Q307.48-5.55 307.48-4.48 307.48-3.4 307.18-1.7 306.88 0 306.18 0L306.18 0 289.08 0Q287.18 0 287.18-1.55L287.18-1.55 287.18-33.7Q287.18-35 288.33-35L288.33-35 306.23-35Q307.28-35 307.28-30.58 307.28-26.15 306.23-26.15L306.23-26.15 296.98-26.15 296.98-21.1ZM321.38-12.05L321.38-0.7Q321.38 0.1 316.63 0.1L316.63 0.1Q311.83 0.1 311.83-0.65L311.83-0.65 311.83-33.25Q311.83-35 313.68-35L313.68-35 323.23-35Q336.38-35 336.38-24.75L336.38-24.75Q336.38-21.65 335.18-19.13 333.98-16.6 331.78-15.1L331.78-15.1 338.08-4.6Q337.68-3.4 335.48-1.85L335.48-1.85Q332.48 0.3 330.53 0.3 328.58 0.3 327.63-1.1L327.63-1.1 322.93-12.05 321.38-12.05ZM322.43-26.15L321.38-26.15 321.38-18.65 321.63-18.65Q326.38-18.65 326.38-22.6L326.38-22.6Q326.38-24.4 325.45-25.28 324.53-26.15 322.43-26.15L322.43-26.15ZM342.62-12.2L342.62-12.2Q343.57-11.45 345.9-10.15 348.22-8.85 350.35-8.85 352.47-8.85 352.47-10.5L352.47-10.5Q352.47-11.25 351.87-11.83 351.27-12.4 349.67-13.15 348.07-13.9 347.27-14.33 346.47-14.75 345.15-15.73 343.82-16.7 343.12-17.75L343.12-17.75Q341.12-20.6 341.12-25 341.12-29.4 344.4-32.43 347.67-35.45 352.97-35.45L352.97-35.45Q356.57-35.45 359.62-34.68 362.67-33.9 362.77-32.65L362.77-32.65Q362.77-32.5 362.77-32.35L362.77-32.35Q362.77-30.6 361.67-27.93 360.57-25.25 360.12-24.95L360.12-24.95Q356.92-26.6 354.4-26.6 351.87-26.6 351.87-24.8L351.87-24.8Q351.87-23.7 353.72-22.85L353.72-22.85Q354.12-22.65 354.87-22.3 355.62-21.95 356.6-21.48 357.57-21 358.7-20.28 359.82-19.55 361.12-18.35L361.12-18.35Q363.77-15.85 363.77-11.75L363.77-11.75Q363.77-6.4 360.82-3 357.87 0.4 351.72 0.5L351.72 0.5Q348.72 0.5 346.3 0 343.87-0.5 342.07-1.95 340.27-3.4 340.27-5.45 340.27-7.5 341.02-9.53 341.77-11.55 342.62-12.2ZM392.32-25.9L392.32-0.8Q392.32 0.2 387.37 0.2 382.42 0.2 382.42-0.8L382.42-0.8 382.42-25.9 376.42-25.9Q375.57-25.9 375.22-28.2L375.22-28.2Q375.07-29.3 375.07-30.45 375.07-31.6 375.22-32.7L375.22-32.7Q375.57-35 376.42-35L376.42-35 398.17-35Q399.02-35 399.37-32.7L399.37-32.7Q399.52-31.6 399.52-30.45 399.52-29.3 399.37-28.2L399.37-28.2Q399.02-25.9 398.17-25.9L398.17-25.9 392.32-25.9ZM417.24 0.5Q410.22 0.5 405.79-4.1 401.37-8.7 401.37-17.53 401.37-26.35 405.84-30.9 410.32-35.45 417.39-35.45 424.47-35.45 428.82-30.98 433.17-26.5 433.17-17.43 433.17-8.35 428.72-3.93 424.27 0.5 417.24 0.5ZM417.27-25.85Q414.87-25.85 413.24-23.65 411.62-21.45 411.62-17.48 411.62-13.5 413.17-11.38 414.72-9.25 417.24-9.25 419.77-9.25 421.34-11.4 422.92-13.55 422.92-17.55 422.92-21.55 421.29-23.7 419.67-25.85 417.27-25.85ZM453.51-11.4L453.51-34Q453.51-35 458.94-35 464.36-35 464.36-34L464.36-34 464.36-11.05Q464.36-5.95 460.71-2.73 457.06 0.5 450.64 0.5 444.21 0.5 440.19-2.83 436.16-6.15 436.16-11.8L436.16-11.8 436.16-33.95Q436.16-34.95 441.59-34.95 447.01-34.95 447.01-33.95L447.01-33.95 447.01-11.4Q447.01-10.4 448.06-9.8L448.06-9.8Q449.16-9.2 450.36-9.2 451.56-9.2 452.54-9.75 453.51-10.3 453.51-11.4L453.51-11.4ZM478.11-12.05L478.11-0.7Q478.11 0.1 473.36 0.1L473.36 0.1Q468.56 0.1 468.56-0.65L468.56-0.65 468.56-33.25Q468.56-35 470.41-35L470.41-35 479.96-35Q493.11-35 493.11-24.75L493.11-24.75Q493.11-21.65 491.91-19.13 490.71-16.6 488.51-15.1L488.51-15.1 494.81-4.6Q494.41-3.4 492.21-1.85L492.21-1.85Q489.21 0.3 487.26 0.3 485.31 0.3 484.36-1.1L484.36-1.1 479.66-12.05 478.11-12.05ZM479.16-26.15L478.11-26.15 478.11-18.65 478.36-18.65Q483.11-18.65 483.11-22.6L483.11-22.6Q483.11-24.4 482.19-25.28 481.26-26.15 479.16-26.15L479.16-26.15ZM499.36-12.2L499.36-12.2Q500.31-11.45 502.63-10.15 504.96-8.85 507.08-8.85 509.21-8.85 509.21-10.5L509.21-10.5Q509.21-11.25 508.61-11.83 508.01-12.4 506.41-13.15 504.81-13.9 504.01-14.33 503.21-14.75 501.88-15.73 500.56-16.7 499.86-17.75L499.86-17.75Q497.86-20.6 497.86-25 497.86-29.4 501.13-32.43 504.41-35.45 509.71-35.45L509.71-35.45Q513.31-35.45 516.36-34.68 519.41-33.9 519.51-32.65L519.51-32.65Q519.51-32.5 519.51-32.35L519.51-32.35Q519.51-30.6 518.41-27.93 517.31-25.25 516.86-24.95L516.86-24.95Q513.66-26.6 511.13-26.6 508.61-26.6 508.61-24.8L508.61-24.8Q508.61-23.7 510.46-22.85L510.46-22.85Q510.86-22.65 511.61-22.3 512.36-21.95 513.33-21.48 514.31-21 515.43-20.28 516.56-19.55 517.86-18.35L517.86-18.35Q520.51-15.85 520.51-11.75L520.51-11.75Q520.51-6.4 517.56-3 514.61 0.4 508.46 0.5L508.46 0.5Q505.46 0.5 503.03 0 500.61-0.5 498.81-1.95 497.01-3.4 497.01-5.45 497.01-7.5 497.76-9.53 498.51-11.55 499.36-12.2Z" opacity="1" transform="matrix(1,0,0,1,0,0)" fill="black" class="slogan-text-1" id="SvgjsPath1113" stroke-width="7" stroke="black" stroke-linejoin="round"></path></svg></g></svg></g></svg></g></svg></g></svg></g></svg></g></mask><g transform="matrix(1,0,0,1,39.55199999999999,45.630661398477)"><svg viewBox="0 0 316.416 155.93867720304598" height="155.93867720304598" width="316.416"><g><svg viewBox="0 0 316.416 155.93867720304598" height="155.93867720304598" width="316.416"><g><svg viewBox="0 0 316.416 155.93867720304598" height="155.93867720304598" width="316.416"><g id="textblocktransform"><svg viewBox="0 0 316.416 155.93867720304598" height="155.93867720304598" width="316.416" id="textblock"><g><svg viewBox="0 0 316.416 109.1583157894737" height="109.1583157894737" width="316.416"><g transform="matrix(1,0,0,1,0,0)"><svg width="316.416" viewBox="-4.550000011920929 -38.95000076293945 122.60000610351562 42.95000076293945" height="109.1583157894737" data-palette-color="#fcfdf2"><path d="M-0.55-2.15L4.3-2.15 4.3-34.95 29.5-34.95 29.5-28 12.1-28 12.1-20.8 27.75-20.8 27.75-14.15 12.1-14.15 12.1-6.9 30.05-6.9 30.05-2.15 34.9-2.15 34.9 0-0.55 0-0.55-2.15ZM72.35-2.15L83.65-2.15 83.65 0 65.8 0 58.15-24.3 50.55 0 32.7 0 32.7-2.15 44-2.15 32.55-34.95 41-34.95 47.9-14.85 54.1-34.95 62.25-34.95 68.4-14.85 75.35-34.95 83.8-34.95 72.35-2.15ZM102.75-2.15L114.05-2.15 114.05 0 83.65 0 83.65-2.15 94.95-2.15 94.95-28.2 85.05-28.2 85.05-34.95 112.65-34.95 112.65-28.2 102.75-28.2 102.75-2.15Z" opacity="1" transform="matrix(1,0,0,1,0,0)" fill="#ffffff" class="wordmark-text-0" data-fill-palette-color="primary" id="text-0"></path></svg></g></svg></g><g transform="matrix(1,0,0,1,3.5,130.62791213305266)"><svg viewBox="0 0 309.416 25.31076506999333" height="25.31076506999333" width="309.416"><g transform="matrix(1,0,0,1,0,0)"><svg width="309.416" viewBox="-1.5 -39.45000076293945 526.010009765625 43.95000076293945" height="25.31076506999333" data-palette-color="#fcfdf2"><path d="M12.3-21.1L18.75-21.1Q19.7-21.1 19.7-17.6L19.7-17.6Q19.7-16.55 19.48-15.13 19.25-13.7 18.65-13.7L18.65-13.7 12.3-13.7 12.3-8.7 21.5-8.7Q22.35-8.7 22.65-6.5L22.65-6.5Q22.8-5.55 22.8-4.48 22.8-3.4 22.5-1.7 22.2 0 21.5 0L21.5 0 4.4 0Q2.5 0 2.5-1.55L2.5-1.55 2.5-33.7Q2.5-35 3.65-35L3.65-35 21.55-35Q22.6-35 22.6-30.58 22.6-26.15 21.55-26.15L21.55-26.15 12.3-26.15 12.3-21.1ZM45.65-10.45L45.65-10.45 45.75-17.25Q45.75-17.95 47.2-18.18 48.65-18.4 49.6-18.4L49.6-18.4 51.55-18.25Q53.45-17.95 53.45-17.2L53.45-17.2 53.25-1.55Q52.25-0.85 49.22-0.18 46.2 0.5 42.3 0.5L42.3 0.5Q35.05 0.5 30.6-4.2 26.15-8.9 26.15-18L26.15-18Q26.15-25.75 30.5-30.6 34.85-35.45 42.55-35.45L42.55-35.45Q46.05-35.45 48.87-34.77 51.7-34.1 52.75-32.95L52.75-32.95Q52.8-32.55 52.8-31.45 52.8-30.35 52.05-28.33 51.3-26.3 50.35-25.3 49.4-24.3 48.97-24.3 48.55-24.3 48.07-24.68 47.6-25.05 46.2-25.48 44.8-25.9 43.5-25.9L43.5-25.9Q40.4-25.9 38.47-23.9 36.55-21.9 36.55-17.7 36.55-13.5 38.52-11.33 40.5-9.15 43.07-9.15 45.65-9.15 45.65-10.45ZM71.4-23.15L75.6-33.35Q76.25-35.1 82-35.1L82-35.1Q83.45-35.1 85.42-34.9 87.4-34.7 87.25-34.4L87.25-34.4 76.85-13.5 76.85-1.3Q76.85-0.45 74.1-0.1L74.1-0.1Q72.7 0.1 71.35 0.1 70 0.1 68.65-0.05L68.65-0.05Q65.9-0.4 65.9-1.3L65.9-1.3 65.9-13.2 55.15-34.3Q54.95-34.6 57.2-34.88 59.45-35.15 61-35.15L61-35.15Q67.15-35.15 67.75-33.35L67.75-33.35 71.4-23.15ZM93.29 0.1L93.29 0.1Q88.74 0.1 88.74-0.9L88.74-0.9 88.74-33.3Q88.74-35 90.29-35L90.29-35 99.09-35Q106.49-35 109.77-31.95 113.04-28.9 113.04-23.1L113.04-23.1Q113.04-18.3 109.94-14.3L109.94-14.3Q108.39-12.3 105.39-11.1 102.39-9.9 98.39-9.9L98.39-9.9 98.39-0.95Q98.39-0.35 96.52-0.13 94.64 0.1 93.29 0.1ZM99.44-26.3L98.39-26.3 98.39-18.4 99.04-18.4Q100.79-18.4 101.99-19.5 103.19-20.6 103.19-22.6 103.19-24.6 102.37-25.45 101.54-26.3 99.44-26.3L99.44-26.3ZM132.49-25.9L132.49-0.8Q132.49 0.2 127.54 0.2 122.59 0.2 122.59-0.8L122.59-0.8 122.59-25.9 116.59-25.9Q115.74-25.9 115.39-28.2L115.39-28.2Q115.24-29.3 115.24-30.45 115.24-31.6 115.39-32.7L115.39-32.7Q115.74-35 116.59-35L116.59-35 138.34-35Q139.19-35 139.54-32.7L139.54-32.7Q139.69-31.6 139.69-30.45 139.69-29.3 139.54-28.2L139.54-28.2Q139.19-25.9 138.34-25.9L138.34-25.9 132.49-25.9ZM146.24-1.25L141.09-34.5Q140.94-35.05 146.14-35.05L146.14-35.05Q151.89-35.05 152.04-34.1L152.04-34.1 154.49-13.05 159.79-34.35Q160.04-35.1 163.69-35.1 167.34-35.1 167.59-34.4L167.59-34.4 172.79-12.95 175.69-34.2Q175.79-34.75 177.99-34.95 180.19-35.15 181.54-35.15L181.54-35.15Q186.79-35.15 186.64-34.45L186.64-34.45 180.59-1.3Q180.39-0.55 177.74-0.2 175.09 0.15 173.44 0.15L173.44 0.15Q167.24 0.15 166.94-1.25L166.94-1.25 163.54-15 159.84-1.3Q159.64-0.4 156.34 0L156.34 0Q154.64 0.15 152.94 0.15L152.94 0.15 149.74 0Q146.44-0.35 146.24-1.25L146.24-1.25ZM204.06 0.5Q197.04 0.5 192.61-4.1 188.19-8.7 188.19-17.53 188.19-26.35 192.66-30.9 197.14-35.45 204.21-35.45 211.29-35.45 215.64-30.98 219.99-26.5 219.99-17.43 219.99-8.35 215.54-3.93 211.09 0.5 204.06 0.5ZM204.09-25.85Q201.69-25.85 200.06-23.65 198.44-21.45 198.44-17.48 198.44-13.5 199.99-11.38 201.54-9.25 204.06-9.25 206.59-9.25 208.16-11.4 209.74-13.55 209.74-17.55 209.74-21.55 208.11-23.7 206.49-25.85 204.09-25.85ZM251.38-34.05L251.38-1.1Q251.38-0.05 246.68-0.05 241.98-0.05 241.58-0.8L241.58-0.8 233.23-16.4 233.23-0.85Q233.23 0.05 228.61 0.05 223.98 0.05 223.98-0.85L223.98-0.85 223.98-34.3Q223.98-35.05 227.93-35.05L227.93-35.05Q229.48-35.05 231.56-34.77 233.63-34.5 234.08-33.75L234.08-33.75 242.08-18.35 242.08-34.05Q242.08-35 246.73-35 251.38-35 251.38-34.05L251.38-34.05ZM256.38-2.3L256.38-2.3 256.38-32.3Q256.38-33.55 257.01-34.27 257.63-35 258.63-35L258.63-35 266.98-35Q274.93-35 279.06-31 283.18-27 283.18-18.4L283.18-18.4Q283.18 0 267.48 0L267.48 0 258.93 0Q256.38 0 256.38-2.3ZM266.48-25.5L265.98-25.5 265.98-10.55Q265.98-9.5 266.13-9.22 266.28-8.95 267.03-8.95L267.03-8.95Q269.78-8.95 271.21-11 272.63-13.05 272.63-17.82 272.63-22.6 271.16-24.05 269.68-25.5 266.48-25.5L266.48-25.5ZM296.98-21.1L303.43-21.1Q304.38-21.1 304.38-17.6L304.38-17.6Q304.38-16.55 304.15-15.13 303.93-13.7 303.33-13.7L303.33-13.7 296.98-13.7 296.98-8.7 306.18-8.7Q307.03-8.7 307.33-6.5L307.33-6.5Q307.48-5.55 307.48-4.48 307.48-3.4 307.18-1.7 306.88 0 306.18 0L306.18 0 289.08 0Q287.18 0 287.18-1.55L287.18-1.55 287.18-33.7Q287.18-35 288.33-35L288.33-35 306.23-35Q307.28-35 307.28-30.58 307.28-26.15 306.23-26.15L306.23-26.15 296.98-26.15 296.98-21.1ZM321.38-12.05L321.38-0.7Q321.38 0.1 316.63 0.1L316.63 0.1Q311.83 0.1 311.83-0.65L311.83-0.65 311.83-33.25Q311.83-35 313.68-35L313.68-35 323.23-35Q336.38-35 336.38-24.75L336.38-24.75Q336.38-21.65 335.18-19.13 333.98-16.6 331.78-15.1L331.78-15.1 338.08-4.6Q337.68-3.4 335.48-1.85L335.48-1.85Q332.48 0.3 330.53 0.3 328.58 0.3 327.63-1.1L327.63-1.1 322.93-12.05 321.38-12.05ZM322.43-26.15L321.38-26.15 321.38-18.65 321.63-18.65Q326.38-18.65 326.38-22.6L326.38-22.6Q326.38-24.4 325.45-25.28 324.53-26.15 322.43-26.15L322.43-26.15ZM342.62-12.2L342.62-12.2Q343.57-11.45 345.9-10.15 348.22-8.85 350.35-8.85 352.47-8.85 352.47-10.5L352.47-10.5Q352.47-11.25 351.87-11.83 351.27-12.4 349.67-13.15 348.07-13.9 347.27-14.33 346.47-14.75 345.15-15.73 343.82-16.7 343.12-17.75L343.12-17.75Q341.12-20.6 341.12-25 341.12-29.4 344.4-32.43 347.67-35.45 352.97-35.45L352.97-35.45Q356.57-35.45 359.62-34.68 362.67-33.9 362.77-32.65L362.77-32.65Q362.77-32.5 362.77-32.35L362.77-32.35Q362.77-30.6 361.67-27.93 360.57-25.25 360.12-24.95L360.12-24.95Q356.92-26.6 354.4-26.6 351.87-26.6 351.87-24.8L351.87-24.8Q351.87-23.7 353.72-22.85L353.72-22.85Q354.12-22.65 354.87-22.3 355.62-21.95 356.6-21.48 357.57-21 358.7-20.28 359.82-19.55 361.12-18.35L361.12-18.35Q363.77-15.85 363.77-11.75L363.77-11.75Q363.77-6.4 360.82-3 357.87 0.4 351.72 0.5L351.72 0.5Q348.72 0.5 346.3 0 343.87-0.5 342.07-1.95 340.27-3.4 340.27-5.45 340.27-7.5 341.02-9.53 341.77-11.55 342.62-12.2ZM392.32-25.9L392.32-0.8Q392.32 0.2 387.37 0.2 382.42 0.2 382.42-0.8L382.42-0.8 382.42-25.9 376.42-25.9Q375.57-25.9 375.22-28.2L375.22-28.2Q375.07-29.3 375.07-30.45 375.07-31.6 375.22-32.7L375.22-32.7Q375.57-35 376.42-35L376.42-35 398.17-35Q399.02-35 399.37-32.7L399.37-32.7Q399.52-31.6 399.52-30.45 399.52-29.3 399.37-28.2L399.37-28.2Q399.02-25.9 398.17-25.9L398.17-25.9 392.32-25.9ZM417.24 0.5Q410.22 0.5 405.79-4.1 401.37-8.7 401.37-17.53 401.37-26.35 405.84-30.9 410.32-35.45 417.39-35.45 424.47-35.45 428.82-30.98 433.17-26.5 433.17-17.43 433.17-8.35 428.72-3.93 424.27 0.5 417.24 0.5ZM417.27-25.85Q414.87-25.85 413.24-23.65 411.62-21.45 411.62-17.48 411.62-13.5 413.17-11.38 414.72-9.25 417.24-9.25 419.77-9.25 421.34-11.4 422.92-13.55 422.92-17.55 422.92-21.55 421.29-23.7 419.67-25.85 417.27-25.85ZM453.51-11.4L453.51-34Q453.51-35 458.94-35 464.36-35 464.36-34L464.36-34 464.36-11.05Q464.36-5.95 460.71-2.73 457.06 0.5 450.64 0.5 444.21 0.5 440.19-2.83 436.16-6.15 436.16-11.8L436.16-11.8 436.16-33.95Q436.16-34.95 441.59-34.95 447.01-34.95 447.01-33.95L447.01-33.95 447.01-11.4Q447.01-10.4 448.06-9.8L448.06-9.8Q449.16-9.2 450.36-9.2 451.56-9.2 452.54-9.75 453.51-10.3 453.51-11.4L453.51-11.4ZM478.11-12.05L478.11-0.7Q478.11 0.1 473.36 0.1L473.36 0.1Q468.56 0.1 468.56-0.65L468.56-0.65 468.56-33.25Q468.56-35 470.41-35L470.41-35 479.96-35Q493.11-35 493.11-24.75L493.11-24.75Q493.11-21.65 491.91-19.13 490.71-16.6 488.51-15.1L488.51-15.1 494.81-4.6Q494.41-3.4 492.21-1.85L492.21-1.85Q489.21 0.3 487.26 0.3 485.31 0.3 484.36-1.1L484.36-1.1 479.66-12.05 478.11-12.05ZM479.16-26.15L478.11-26.15 478.11-18.65 478.36-18.65Q483.11-18.65 483.11-22.6L483.11-22.6Q483.11-24.4 482.19-25.28 481.26-26.15 479.16-26.15L479.16-26.15ZM499.36-12.2L499.36-12.2Q500.31-11.45 502.63-10.15 504.96-8.85 507.08-8.85 509.21-8.85 509.21-10.5L509.21-10.5Q509.21-11.25 508.61-11.83 508.01-12.4 506.41-13.15 504.81-13.9 504.01-14.33 503.21-14.75 501.88-15.73 500.56-16.7 499.86-17.75L499.86-17.75Q497.86-20.6 497.86-25 497.86-29.4 501.13-32.43 504.41-35.45 509.71-35.45L509.71-35.45Q513.31-35.45 516.36-34.68 519.41-33.9 519.51-32.65L519.51-32.65Q519.51-32.5 519.51-32.35L519.51-32.35Q519.51-30.6 518.41-27.93 517.31-25.25 516.86-24.95L516.86-24.95Q513.66-26.6 511.13-26.6 508.61-26.6 508.61-24.8L508.61-24.8Q508.61-23.7 510.46-22.85L510.46-22.85Q510.86-22.65 511.61-22.3 512.36-21.95 513.33-21.48 514.31-21 515.43-20.28 516.56-19.55 517.86-18.35L517.86-18.35Q520.51-15.85 520.51-11.75L520.51-11.75Q520.51-6.4 517.56-3 514.61 0.4 508.46 0.5L508.46 0.5Q505.46 0.5 503.03 0 500.61-0.5 498.81-1.95 497.01-3.4 497.01-5.45 497.01-7.5 497.76-9.53 498.51-11.55 499.36-12.2Z" opacity="1" transform="matrix(1,0,0,1,0,0)" fill="#ffffff" class="slogan-text-1" data-fill-palette-color="secondary" id="text-1"></path></svg></g></svg></g></svg></g></svg></g></svg></g></svg></g><g mask="url(#a1a81d9e-2ebe-453c-bd5f-cbb062e79914)"><g transform="matrix(2.5190571743683146, 0, 0, 2.5190571743683146, 130.2458486879939, 0.9999999999999858)"><svg xmlns="http://www.w3.org/2000/svg" xmlns:xlink="http://www.w3.org/1999/xlink" version="1.1" x="0" y="0" viewBox="21.1253719329834 0.8969947099685669 53.60271453857422 97.33800506591797" enable-background="new 0 0 100 100" xml:space="preserve" height="97.33800506591797" width="53.60271453857422" class="icon-none" data-fill-palette-color="accent" id="none"><path fill="#ffffff" d="M52.697 59.84h-0.026c-0.073 0-0.155 0-0.241 0-0.411-0.285-1.776-1.201-2.785-1.523-0.729-0.232-1.181 0.035-1.479 0.217-0.121 0.072-0.158 0.121-0.258 0.121-0.072 0-0.139-0.049-0.26-0.121-0.298-0.182-0.75-0.449-1.479-0.217-0.926 0.295-2.151 1.094-2.666 1.443-0.235-0.008-0.381-0.01-0.39-0.01-0.282 0-0.512 0.229-0.512 0.512 0 0.281 0.229 0.512 0.512 0.512 0.046 0 0.091 0.004 0.155 0.012 0.078 0.016 0.126 0.035 0.168 0.055 0.191 0.084 0.477 0.371 0.764 0.715 0.372 0.438 0.848 1.002 1.545 1.418-0.162 0.111-0.252 0.312-0.211 0.52 0.049 0.244 0.264 0.412 0.5 0.412 0.034 0 0.068-0.006 0.104-0.014 0.558-0.109 1.217-0.17 1.914-0.17 0.58 0 1.15 0.041 1.646 0.121 0.277 0.047 0.542-0.141 0.587-0.42 0.028-0.18-0.039-0.35-0.162-0.463 0.688-0.416 1.156-0.973 1.523-1.406 0.26-0.309 0.506-0.646 0.699-0.68 0.121-0.012 0.353-0.012 0.353-0.012 0.281 0 0.509-0.229 0.509-0.51C53.206 60.068 52.979 59.84 52.697 59.84zM46.48 59.289c0.289-0.094 0.407-0.021 0.642 0.119 0.193 0.115 0.432 0.258 0.76 0.268 0.004 0 0.045 0 0.052 0 0.325-0.01 0.563-0.152 0.758-0.268 0.235-0.141 0.353-0.213 0.642-0.119 0.381 0.123 0.84 0.355 1.268 0.602-1.001 0.057-2.064 0.172-2.717 0.406-0.633-0.23-1.666-0.363-2.608-0.441C45.685 59.623 46.118 59.406 46.48 59.289zM47.925 62.525h-0.002-0.002c-1.562 0-2.295-0.867-2.939-1.635-0.012-0.012-0.021-0.023-0.031-0.037 0.954 0.072 2.027 0.195 2.594 0.406 0.146 0.049 0.226 0.107 0.338 0.107 0.01 0-0.016-0.004 0.008 0 0.111 0.006 0.182-0.051 0.328-0.107 0.531-0.197 1.553-0.311 2.642-0.361C50.214 61.662 49.483 62.525 47.925 62.525zM36.851 44.496c-0.242 0.25-0.227 0.095-0.114-0.092 0.882-1.429 1.581-2.112 3.315-2.551 1.779-0.451 3.75 0.052 5.438 1.394 1.073 0.854 0.401 2.123-0.754 1.432C40.081 41.891 37.647 43.675 36.851 44.496zM39.548 48.362c-0.073 0-0.149-0.017-0.223-0.052-0.766-0.367-1.475-0.926-1.675-1.087-0.052-0.042-0.092-0.093-0.124-0.149-0.136-0.156-0.169-0.384-0.064-0.577 0.133-0.249 0.442-0.342 0.69-0.208 0.19 0.102 0.298 0.157 0.991-0.227 0.663-0.427 1.607-0.86 2.688-0.823 1.254 0.036 2.19 0.4 2.791 1.078 0.742 0.839 0.656 1.847 0.652 1.889 0 0.003-0.002 0.007-0.002 0.009 0.021 0.127-0.004 0.265-0.086 0.378-0.102 0.14-0.258 0.215-0.418 0.215-0.102 0-0.206-0.03-0.296-0.094-0.144-0.103-0.253-0.132-0.478-0.132-0.279 0-0.511-0.229-0.511-0.511 0-0.283 0.229-0.511 0.511-0.511 0.063 0 0.125 0.002 0.184 0.006-0.061-0.185-0.161-0.392-0.334-0.583-0.285-0.316-0.709-0.527-1.26-0.637 0.123 0.183 0.196 0.402 0.196 0.639 0 0.628-0.508 1.134-1.135 1.134-0.628 0-1.136-0.506-1.136-1.134 0-0.194 0.053-0.374 0.139-0.534-0.191 0.067-0.376 0.148-0.544 0.235-0.151 0.09-0.292 0.173-0.429 0.25-0.118 0.077-0.229 0.156-0.324 0.228 0.139 0.083 0.279 0.158 0.415 0.224 0.254 0.122 0.362 0.427 0.239 0.682C39.921 48.255 39.738 48.362 39.548 48.362zM58.234 46.503c0.177 0.219 0.144 0.541-0.075 0.72-0.199 0.162-0.91 0.721-1.678 1.087-0.07 0.035-0.145 0.052-0.221 0.052-0.188 0-0.373-0.107-0.461-0.291-0.121-0.255-0.014-0.56 0.24-0.682 0.137-0.066 0.276-0.142 0.416-0.224-0.312-0.24-0.765-0.53-1.301-0.717 0.088 0.162 0.143 0.342 0.143 0.537 0 0.628-0.51 1.134-1.137 1.134s-1.136-0.506-1.136-1.134c0-0.237 0.074-0.456 0.198-0.639-0.561 0.112-0.985 0.325-1.27 0.646-0.168 0.189-0.267 0.393-0.324 0.573 0.059-0.004 0.121-0.006 0.183-0.006 0.282 0 0.513 0.229 0.513 0.511 0 0.282-0.23 0.511-0.513 0.511-0.226 0-0.332 0.03-0.478 0.132-0.088 0.064-0.191 0.094-0.295 0.094-0.162 0-0.318-0.075-0.416-0.215-0.082-0.114-0.11-0.251-0.088-0.378 0-0.002 0-0.006 0-0.009-0.008-0.042-0.092-1.05 0.652-1.889 0.598-0.678 1.536-1.042 2.787-1.078 1.539-0.05 2.798 0.84 3.365 1.324 0.06-0.045 0.117-0.09 0.17-0.134C57.73 46.251 58.054 46.284 58.234 46.503zM50.323 43.246c1.688-1.342 3.654-1.845 5.436-1.394 1.734 0.439 2.435 1.122 3.312 2.551 0.116 0.188 0.133 0.342-0.111 0.092-0.795-0.82-3.229-2.606-7.885 0.182C49.921 45.369 49.249 44.101 50.323 43.246zM46.766 54.6l0.067 0.051c0.271 0.205 0.502 0.381 1.076 0.381 0.584 0 0.824-0.182 1.102-0.393l0.053-0.039c0.842-0.631 1.579-0.236 1.852 0.061 0.191 0.209 0.178 0.533-0.029 0.725-0.209 0.189-0.532 0.178-0.723-0.031-0.076-0.07-0.229-0.127-0.482 0.062l-1.424 1.271c-0.098 0.09-0.221 0.135-0.346 0.135-0.123 0-0.246-0.047-0.344-0.135l0 0-1.413-1.271c-0.256-0.189-0.411-0.135-0.495-0.055-0.189 0.209-0.508 0.217-0.716 0.027-0.21-0.191-0.218-0.52-0.028-0.729C45.189 54.363 45.927 53.969 46.766 54.6zM46.702 24.808l0.647 1.546C46.292 26.066 46.702 24.808 46.702 24.808zM48.53 26.354l0.646-1.546C49.177 24.808 49.587 26.066 48.53 26.354zM74.316 85.215c-0.114-0.025-11.702-2.453-15.981-6.877-2.619-2.709-1.963-9.275-1.34-12.947 0.006-0.051 0.006-0.098 0.002-0.148 0.883-1.01 1.522-2.533 2.418-5.674 0.221-0.766 0.437-1.449 0.645-2.068 0.193-0.031 0.363-0.057 0.376-0.059 0.218-0.037 0.663-0.129 0.854-0.18 1.49-0.396 1.84-1.314 2.246-2.379 0.252-0.658 0.537-1.404 1.141-2.301 1.068-1.596 1.478-3.454 1.035-4.735-0.205-0.604-0.6-1.028-1.104-1.194-0.537-0.177-1.219-0.179-1.899 0.139l7.035-33.984c0.334-1.54-0.062-3.021-1.177-4.399-3.155-3.913-11.31-6.101-18.364-6.415-0.541-0.668-1.367-1.097-2.291-1.097-0.927 0-1.754 0.429-2.293 1.097-7.061 0.312-15.215 2.501-18.373 6.415-1.111 1.378-1.508 2.859-1.179 4.396L33.339 46.9c-0.754-0.427-1.523-0.443-2.117-0.248-0.506 0.166-0.898 0.59-1.104 1.194-0.441 1.281-0.035 3.138 1.034 4.734 0.604 0.896 0.89 1.645 1.142 2.303 0.406 1.062 0.758 1.98 2.246 2.379 0.191 0.051 0.64 0.143 0.854 0.178 0.013 0.002 0.181 0.027 0.372 0.061 0.207 0.619 0.424 1.303 0.645 2.066 0.902 3.164 1.545 4.691 2.44 5.703-0.002 0.039 0 0.08 0.006 0.119 0.622 3.672 1.279 10.238-1.341 12.947-4.278 4.424-15.866 6.852-15.982 6.877-0.277 0.055-0.455 0.326-0.398 0.602 0.052 0.242 0.264 0.408 0.502 0.408 0.033 0 0.066-0.004 0.102-0.012 0.352-0.072 6.362-1.328 11.4-3.746 5.623 9.66 13.105 15.77 14.806 15.77 1.696 0 9.175-6.102 14.793-15.76 5.033 2.412 11.026 3.664 11.376 3.736 0.034 0.008 0.07 0.012 0.102 0.012 0.238 0 0.453-0.166 0.502-0.408C74.771 85.541 74.595 85.27 74.316 85.215zM64.288 47.626c0.25 0.082 0.387 0.346 0.457 0.554 0.279 0.811 0.104 2.31-0.918 3.832-0.666 0.994-0.986 1.834-1.244 2.508-0.393 1.025-0.572 1.494-1.558 1.756-0.116 0.031-0.384 0.088-0.585 0.127 0.154-0.434 0.303-0.834 0.438-1.199 0.426-1.146 0.762-2.053 0.896-2.893 0.176-1.109 0.191-1.907 0.141-2.565 0-0.002 0.002-0.002 0.002-0.005 0 0-0.055-0.71 0.184-1.092C62.921 47.323 64.005 47.532 64.288 47.626zM61.626 45.524c0.062-0.544 0.088-1.074 0.082-1.59 0.137 0.18 0.242 0.3 0.396 0.458l-0.525 2.674C61.546 46.599 61.544 46.222 61.626 45.524zM62.413 43.171c-0.879-1.238-1.324-3.098-1.324-5.552 0-1.135 0.098-2.25 0.287-3.317 0.027-0.152-0.021-0.311-0.125-0.428-1.875-2.52-4.914-4.373-8.451-5.269 2.004-2.06 2.586-4.193 1.761-6.482 4.44 1.136 8.274 3.436 10.838 6.622L62.413 43.171zM60.101 38.791c-0.12-0.167-0.246-0.33-0.381-0.487-1.936-2.257-5.219-3.548-9.764-3.844 0.217-1.609 0.672-3.392 2.034-4.997 3.481 0.763 6.492 2.492 8.339 4.889-0.176 1.055-0.264 2.154-0.264 3.268C60.066 38.022 60.077 38.412 60.101 38.791zM65.663 27.472c-2.853-3.219-6.968-5.497-11.668-6.537-0.597-0.814-1.888-1.22-3.137-1.419v-3.744c6.436 0.611 12.275 3.345 15.688 7.445L65.663 27.472zM67.771 9.051c0.907 1.127 1.237 2.319 0.972 3.546l-1.938 9.363c-3.693-4.049-9.465-6.648-15.946-7.221V3.851c0-0.28-0.04-0.548-0.114-0.805C58.167 3.471 65.234 5.91 67.771 9.051zM45.98 3.851c0-1.064 0.864-1.929 1.929-1.929 1.062 0 1.928 0.865 1.928 1.929v15.543c-0.914-0.079-1.67-0.065-1.899-0.058-0.233-0.008-1.015-0.022-1.956 0.062L45.98 3.851 45.98 3.851zM47.923 20.357c0.018 0 0.037 0 0.056 0 1.757-0.053 4.714 0.244 5.254 1.281 0.765 1.467 1.446 3.736-1.396 6.49-2.062 2-2.653 4.369-2.905 6.282-0.171-0.005-0.343-0.01-0.515-0.013 0.004-0.011 0.006-0.022 0.008-0.034 0.002-0.04 0.234-4.009 2.728-6.501 1.542-1.543 2.179-3.3 1.7-4.699-0.284-0.832-0.928-1.389-1.717-1.49-0.113-0.014-0.223-0.022-0.327-0.022-0.675 0-1.024 0.304-1.201 0.559-0.476 0.685-0.192 1.728 0.017 2.289 0.201 0.538 0.015 0.944-0.396 1.738-0.118 0.225-0.25 0.481-0.376 0.758-0.22 0.486-0.558 0.765-0.925 0.765-0.391 0-0.779-0.307-1.039-0.821l-0.139-0.274c-0.518-1.011-0.734-1.486-0.479-2.167 0.204-0.547 0.479-1.57-0.01-2.271-0.184-0.262-0.545-0.576-1.229-0.576-0.104 0-0.216 0.008-0.329 0.022-0.791 0.101-1.434 0.658-1.717 1.49-0.479 1.399 0.157 3.155 1.7 4.699 2.483 2.484 2.716 6.46 2.716 6.5 0.002 0.013 0.004 0.025 0.006 0.038-0.16 0.003-0.32 0.004-0.479 0.008-0.258-1.923-0.854-4.301-2.895-6.279-2.841-2.754-2.156-5.023-1.394-6.49C43.181 20.596 46.167 20.298 47.923 20.357zM48.124 31.079c0.004 0.016 0.012 0.031 0.016 0.048-0.096-0.221-0.182-0.45-0.254-0.687-0.133-0.434-0.213-0.863-0.246-1.279-0.203 0.511-0.317 1.075-0.317 1.668 0 0.017 0.003 0.034 0.003 0.05-0.029-0.234-0.045-0.476-0.045-0.722 0-0.685 0.116-1.334 0.314-1.919 0.102 0.016 0.203 0.025 0.31 0.025s0.211-0.011 0.315-0.028C47.876 29.074 47.812 30.071 48.124 31.079zM35.548 34.352c1.848-2.396 4.854-4.124 8.334-4.888 1.342 1.589 1.801 3.375 2.021 4.993-4.487 0.286-7.747 1.539-9.698 3.735-0.15 0.167-0.289 0.341-0.42 0.519 0.021-0.351 0.029-0.715 0.029-1.091C35.813 36.505 35.726 35.406 35.548 34.352zM27.068 12.593c-0.267-1.222 0.06-2.414 0.972-3.542 2.537-3.143 9.607-5.582 17.031-6.007-0.072 0.257-0.113 0.526-0.113 0.806v10.938c-6.453 0.681-12.269 3.417-15.82 7.515L27.068 12.593zM29.409 23.578c3.301-4.22 9.078-7.059 15.549-7.764v3.71c-1.283 0.212-2.604 0.646-3.15 1.521-4.66 1.126-8.758 3.477-11.512 6.703L29.409 23.578zM30.572 29.036c2.457-3.201 6.278-5.577 10.7-6.796-0.764 2.246-0.166 4.34 1.801 6.366-3.518 0.893-6.547 2.735-8.425 5.241-0.118 0.116-0.176 0.286-0.146 0.454 0.19 1.067 0.289 2.183 0.289 3.317 0 2.368-0.416 4.185-1.234 5.421L30.572 29.036zM34.265 46.354l-0.43-2.019c0.098-0.105 0.19-0.215 0.281-0.33-0.002 0.493 0.023 0.999 0.084 1.519C34.234 45.827 34.255 46.102 34.265 46.354zM34.802 56.273c-0.984-0.262-1.166-0.729-1.555-1.754-0.259-0.676-0.58-1.514-1.246-2.508-1.021-1.522-1.197-3.021-0.918-3.833 0.069-0.208 0.207-0.472 0.457-0.554 0.281-0.094 1.365-0.302 2.19 1.021 0.198 0.323 0.19 0.875 0.185 1.042-0.055 0.67-0.045 1.479 0.135 2.62 0.135 0.84 0.471 1.746 0.896 2.893 0.137 0.365 0.283 0.768 0.439 1.197C35.182 56.361 34.919 56.307 34.802 56.273zM37.392 59.287c-0.541-1.896-1.064-3.307-1.486-4.441s-0.729-1.955-0.844-2.695c-0.275-1.735-0.126-2.592 0.031-3.5 0.146-0.844 0.299-1.717 0.123-3.242-0.213-1.845-0.082-4.477 1.75-6.536 2.031-2.283 5.713-3.447 10.945-3.457h0.002 0.002c0.41 0 0.82 0.009 1.217 0.024 4.658 0.182 7.961 1.37 9.812 3.53 1.755 2.047 1.874 4.63 1.667 6.438-0.176 1.525-0.023 2.398 0.121 3.242 0.158 0.908 0.307 1.766 0.029 3.501-0.115 0.74-0.422 1.561-0.842 2.695s-0.943 2.545-1.485 4.439c-1.498 5.244-2.063 5.561-4.785 7.07-0.212 0.117-0.435 0.238-0.672 0.375-1.86 1.049-2.981 1.49-5.063 1.496-2.082-0.006-3.207-0.447-5.064-1.496-0.236-0.137-0.46-0.258-0.67-0.375C39.456 64.846 38.891 64.531 37.392 59.287zM38.249 79.047c2.461-2.541 2.459-7.693 1.873-12.111 0.455 0.299 0.967 0.582 1.56 0.912 0.209 0.117 0.429 0.238 0.665 0.371 1.929 1.086 3.257 1.611 5.505 1.627 0.007 0 0.118 0 0.122 0 2.25-0.016 3.576-0.541 5.506-1.627 0.234-0.133 0.455-0.254 0.663-0.371 0.618-0.342 1.135-0.631 1.589-0.932-0.588 4.422-0.592 9.586 1.87 12.131 0.058 0.061 0.118 0.123 0.178 0.182-3.19 5.877-9.098 9.605-9.835 9.652-0.742-0.047-6.663-3.783-9.852-9.672C38.146 79.154 38.2 79.102 38.249 79.047zM47.938 97.213c-1.057 0-8.339-5.703-13.885-15.207 1.201-0.627 2.318-1.326 3.256-2.096 3.277 5.877 9.354 9.992 10.631 9.992 1.279 0 7.342-4.109 10.623-9.975 0.938 0.768 2.057 1.463 3.258 2.092C56.275 91.516 49.003 97.213 47.938 97.213z" data-fill-palette-color="accent"></path></svg></g></g></svg></g><defs></defs></svg><rect width="395.52" height="247.2" fill="none" stroke="none" visibility="hidden"></rect></g></svg></g></svg>